<svg xmlns="http://www.w3.org/2000/svg" viewBox="0 0 600 900" preserveAspectRatio="xMidYMid slice"><defs><linearGradient id="sky" x1="0" y1="0" x2="0" y2="1"><stop offset="0" stop-color="#120a2e" stop-opacity="1"/><stop offset="0.6" stop-color="#3a1a7a" stop-opacity="1"/><stop offset="1" stop-color="#e5007e" stop-opacity="1"/></linearGradient></defs><rect width="600" height="900" fill="url(#sky)"/><path d="M151.2 763H354V788.1" fill="none" stroke="#ffc84a" stroke-width="2" opacity="0.2"/><circle cx="151.2" cy="763" r="4" fill="#ffc84a" opacity=".5"/><path d="M9.7 154.8V273.2H-2.3" fill="none" stroke="#ffc84a" stroke-width="2" opacity="0.3"/><circle cx="9.7" cy="154.8" r="4" fill="#ffc84a" opacity=".5"/><path d="M399.1 695.9V814.8H457.5" fill="none" stroke="#ffc84a" stroke-width="2" opacity="0.4"/><circle cx="399.1" cy="695.9" r="4" fill="#ffc84a" opacity=".5"/><path d="M375.6 2.1V199.6H421.2" fill="none" stroke="#ffc84a" stroke-width="2" opacity="0.2"/><circle cx="375.6" cy="2.1" r="4" fill="#ffc84a" opacity=".5"/><path d="M495.4 290.5H644.4V309.3" fill="none" stroke="#ffc84a" stroke-width="2" opacity="0.2"/><circle cx="495.4" cy="290.5" r="4" fill="#ffc84a" opacity=".5"/><path d="M260.9 292.4H459.6V266.4" fill="none" stroke="#ffc84a" stroke-width="2" opacity="0.2"/><circle cx="260.9" cy="292.4" r="4" fill="#ffc84a" opacity=".5"/><path d="M437.4 668.9V859H408.4" fill="none" stroke="#ffc84a" stroke-width="2" opacity="0.3"/><circle cx="437.4" cy="668.9" r="4" fill="#ffc84a" opacity=".5"/><path d="M323 485.8H518V470.4" fill="none" stroke="#ffc84a" stroke-width="2" opacity="0.3"/><circle cx="323" cy="485.8" r="4" fill="#ffc84a" opacity=".5"/><path d="M304.1 27H367.8V83.3" fill="none" stroke="#ffc84a" stroke-width="2" opacity="0.2"/><circle cx="304.1" cy="27" r="4" fill="#ffc84a" opacity=".5"/><path d="M324.7 360.9V579.4H332.6" fill="none" stroke="#ffc84a" stroke-width="2" opacity="0.4"/><circle cx="324.7" cy="360.9" r="4" fill="#ffc84a" opacity=".5"/><path d="M413.8 578.1V658.8H447.2" fill="none" stroke="#ffc84a" stroke-width="2" opacity="0.2"/><circle cx="413.8" cy="578.1" r="4" fill="#ffc84a" opacity=".5"/><path d="M47.4 155.8V365.6H40.7" fill="none" stroke="#ffc84a" stroke-width="2" opacity="0.4"/><circle cx="47.4" cy="155.8" r="4" fill="#ffc84a" opacity=".5"/><path d="M459 442.3H573.3V385.4" fill="none" stroke="#ffc84a" stroke-width="2" opacity="0.2"/><circle cx="459" cy="442.3" r="4" fill="#ffc84a" opacity=".5"/><path d="M131.6 662.7V741.9H140.2" fill="none" stroke="#ffc84a" stroke-width="2" opacity="0.2"/><circle cx="131.6" cy="662.7" r="4" fill="#ffc84a" opacity=".5"/><path d="M7.1 162.1V280.7H-47.5" fill="none" stroke="#ffc84a" stroke-width="2" opacity="0.2"/><circle cx="7.1" cy="162.1" r="4" fill="#ffc84a" opacity=".5"/><path d="M511.5 537.8H628.6V540.6" fill="none" stroke="#ffc84a" stroke-width="2" opacity="0.3"/><circle cx="511.5" cy="537.8" r="4" fill="#ffc84a" opacity=".5"/><path d="M509.4 163H620.9V211.8" fill="none" stroke="#ffc84a" stroke-width="2" opacity="0.4"/><circle cx="509.4" cy="163" r="4" fill="#ffc84a" opacity=".5"/><path d="M258.1 520.6V633.5H223" fill="none" stroke="#ffc84a" stroke-width="2" opacity="0.1"/><circle cx="258.1" cy="520.6" r="4" fill="#ffc84a" opacity=".5"/><path d="M108.3 98.3V175.6H105.5" fill="none" stroke="#ffc84a" stroke-width="2" opacity="0.2"/><circle cx="108.3" cy="98.3" r="4" fill="#ffc84a" opacity=".5"/><path d="M398.3 733.8V950.3H440.5" fill="none" stroke="#ffc84a" stroke-width="2" opacity="0.1"/><circle cx="398.3" cy="733.8" r="4" fill="#ffc84a" opacity=".5"/><path d="M282.9 495.5V623.3H258.1" fill="none" stroke="#ffc84a" stroke-width="2" opacity="0.1"/><circle cx="282.9" cy="495.5" r="4" fill="#ffc84a" opacity=".5"/><path d="M22.8 373.8H85.8V344.6" fill="none" stroke="#ffc84a" stroke-width="2" opacity="0.3"/><circle cx="22.8" cy="373.8" r="4" fill="#ffc84a" opacity=".5"/><defs><radialGradient id="g"><stop offset="0" stop-color="#ffc84a" stop-opacity="0.32"/><stop offset="1" stop-color="#ffc84a" stop-opacity="0"/></radialGradient></defs><circle cx="300" cy="405" r="495.00000000000006" fill="url(#g)"/><g transform="translate(300 405)" fill="none" stroke="#ffc84a" stroke-width="3"><circle r="153" stroke-dasharray="10 14" opacity=".8"/><circle r="234" opacity=".35"/><circle r="72" fill="#ffc84a" opacity=".9"/></g><g transform="translate(300 405)" stroke="#ffc84a" stroke-width="3" opacity=".6"><line x1="180" y1="0" x2="243.00000000000003" y2="0"/><line x1="155.88457268119896" y1="90" x2="210.4441731196186" y2="121.49999999999999"/><line x1="90.00000000000003" y1="155.88457268119896" x2="121.50000000000004" y2="210.44417311961857"/><line x1="1.1021821192326179e-14" y1="180" x2="1.4879458609640343e-14" y2="243.00000000000003"/><line x1="-89.99999999999996" y1="155.88457268119896" x2="-121.49999999999994" y2="210.4441731196186"/><line x1="-155.88457268119896" y1="90" x2="-210.4441731196186" y2="121.49999999999999"/><line x1="-180" y1="2.2043642384652358e-14" x2="-243.00000000000003" y2="2.9758917219280685e-14"/><line x1="-155.884572681199" y1="-89.99999999999996" x2="-210.44417311961865" y2="-121.49999999999994"/><line x1="-90.00000000000009" y1="-155.88457268119896" x2="-121.50000000000011" y2="-210.44417311961857"/><line x1="-3.3065463576978534e-14" y1="-180" x2="-4.4638375828921025e-14" y2="-243.00000000000003"/><line x1="90.00000000000003" y1="-155.88457268119896" x2="121.50000000000004" y2="-210.44417311961857"/><line x1="155.88457268119893" y1="-90.00000000000009" x2="210.44417311961854" y2="-121.50000000000011"/></g><rect x="-10" y="638.6" width="39.8" height="121.4" fill="#0a0520"/><rect x="18" y="700.6" width="4" height="6" fill="#ffc84a" opacity="0.8"/><rect x="32.8" y="692" width="59.3" height="68" fill="#0a0520"/><rect x="61" y="668" width="3" height="26" fill="#0a0520"/><rect x="38.8" y="715" width="4" height="6" fill="#ffc84a" opacity="0.8"/><rect x="49.8" y="715" width="4" height="6" fill="#ffc84a" opacity="0.7"/><rect x="60.8" y="741" width="4" height="6" fill="#ffc84a" opacity="0.7"/><rect x="94.5" y="695.4" width="60.7" height="64.6" fill="#0a0520"/><rect x="100.5" y="718.4" width="4" height="6" fill="#ffc84a" opacity="0.9"/><rect x="158.1" y="645.3" width="54.5" height="114.7" fill="#0a0520"/><rect x="175.1" y="668.3" width="4" height="6" fill="#ffc84a" opacity="0.7"/><rect x="197.1" y="668.3" width="4" height="6" fill="#ffc84a" opacity="0.6"/><rect x="164.1" y="681.3" width="4" height="6" fill="#ffc84a" opacity="0.6"/><rect x="186.1" y="681.3" width="4" height="6" fill="#ffc84a" opacity="0.8"/><rect x="197.1" y="694.3" width="4" height="6" fill="#ffc84a" opacity="0.9"/><rect x="164.1" y="746.3" width="4" height="6" fill="#ffc84a" opacity="0.8"/><rect x="214.8" y="642.3" width="34.7" height="117.7" fill="#0a0520"/><rect x="230.7" y="618.3" width="3" height="26" fill="#0a0520"/><rect x="231.8" y="678.3" width="4" height="6" fill="#ffc84a" opacity="0.9"/><rect x="220.8" y="691.3" width="4" height="6" fill="#ffc84a" opacity="0.7"/><rect x="231.8" y="717.3" width="4" height="6" fill="#ffc84a" opacity="0.8"/><rect x="231.8" y="730.3" width="4" height="6" fill="#ffc84a" opacity="0.8"/><rect x="251" y="718.1" width="76.5" height="41.9" fill="#0a0520"/><rect x="312" y="741.1" width="4" height="6" fill="#ffc84a" opacity="0.7"/><rect x="331" y="681.9" width="52.8" height="78.1" fill="#0a0520"/><rect x="337" y="704.9" width="4" height="6" fill="#ffc84a" opacity="0.9"/><rect x="359" y="704.9" width="4" height="6" fill="#ffc84a" opacity="0.9"/><rect x="370" y="743.9" width="4" height="6" fill="#ffc84a" opacity="0.8"/><rect x="386.9" y="693.2" width="63.9" height="66.8" fill="#0a0520"/><rect x="417.3" y="669.2" width="3" height="26" fill="#0a0520"/><rect x="392.9" y="703.2" width="4" height="6" fill="#ffc84a" opacity="0.7"/><rect x="414.9" y="716.2" width="4" height="6" fill="#ffc84a" opacity="0.9"/><rect x="414.9" y="729.2" width="4" height="6" fill="#ffc84a" opacity="0.9"/><rect x="425.9" y="742.2" width="4" height="6" fill="#ffc84a" opacity="0.7"/><rect x="453.6" y="649.4" width="75.8" height="110.6" fill="#0a0520"/><rect x="481.6" y="659.4" width="4" height="6" fill="#ffc84a" opacity="0.6"/><rect x="492.6" y="672.4" width="4" height="6" fill="#ffc84a" opacity="0.5"/><rect x="459.6" y="685.4" width="4" height="6" fill="#ffc84a" opacity="0.5"/><rect x="514.6" y="698.4" width="4" height="6" fill="#ffc84a" opacity="0.8"/><rect x="492.6" y="711.4" width="4" height="6" fill="#ffc84a" opacity="0.7"/><rect x="514.6" y="724.4" width="4" height="6" fill="#ffc84a" opacity="0.6"/><rect x="481.6" y="737.4" width="4" height="6" fill="#ffc84a" opacity="0.9"/><rect x="530" y="692.3" width="76.3" height="67.7" fill="#0a0520"/><rect y="756" width="600" height="900" fill="#0a0520"/><g fill="#05020f" transform="translate(606 765) scale(1.125)"><circle cx="0" cy="-86" r="10"/><path d="M-12 -74Q0 -80 12 -74L16 -30L10 -30L8 0L-8 0L-10 -30L-16 -30Z"/></g><g fill="#05020f" transform="translate(-24 765) scale(1.0588235294117647)"><circle cx="0" cy="-118" r="10"/><path d="M-30 -108L-22 -112L-10 -80Q0 -84 10 -80L22 -112L30 -108L16 -70L12 -30L10 0L-10 0L-12 -30L-16 -70Z"/></g><defs><linearGradient id="fade" x1="0" y1="0" x2="0" y2="1"><stop offset="0" stop-color="#000" stop-opacity="0"/><stop offset="1" stop-color="#000" stop-opacity="0.55"/></linearGradient><radialGradient id="vig"><stop offset="0" stop-color="#000" stop-opacity="0"/><stop offset="1" stop-color="#000" stop-opacity="0.55"/></radialGradient><filter id="grain"><feTurbulence type="fractalNoise" baseFrequency=".9" numOctaves="2" stitchTiles="stitch"/><feColorMatrix values="0 0 0 0 1  0 0 0 0 1  0 0 0 0 1  0 0 0 .5 0"/></filter></defs><rect width="600" height="900" fill="url(#fade)"/><rect width="600" height="900" filter="url(#grain)" opacity=".07"/></svg>