<svg xmlns="http://www.w3.org/2000/svg" viewBox="0 0 600 900" preserveAspectRatio="xMidYMid slice"><defs><linearGradient id="sky" x1="0" y1="0" x2="0" y2="1"><stop offset="0" stop-color="#2a0a16" stop-opacity="1"/><stop offset="0.5" stop-color="#a3260f" stop-opacity="1"/><stop offset="1" stop-color="#ffb347" stop-opacity="1"/></linearGradient></defs><rect width="600" height="900" fill="url(#sky)"/><defs><radialGradient id="s"><stop offset="0" stop-color="#ff6a2b" stop-opacity="0.55"/><stop offset="1" stop-color="#ff6a2b" stop-opacity="0"/></radialGradient></defs><circle cx="300" cy="378" r="374.40000000000003" fill="url(#s)"/><circle cx="300" cy="378" r="117" fill="#ffe0a8"/><circle cx="300" cy="378" r="144" fill="none" stroke="#ffe0a8" stroke-width="2.4" opacity="0.6"/><circle cx="300" cy="378" r="189" fill="none" stroke="#ffe0a8" stroke-width="2.4" opacity="0.5"/><circle cx="300" cy="378" r="234" fill="none" stroke="#ffe0a8" stroke-width="2.4" opacity="0.5"/><circle cx="300" cy="378" r="279" fill="none" stroke="#ffe0a8" stroke-width="2.4" opacity="0.4"/><circle cx="300" cy="378" r="324" fill="none" stroke="#ffe0a8" stroke-width="2.4" opacity="0.3"/><circle cx="300" cy="378" r="369" fill="none" stroke="#ffe0a8" stroke-width="2.4" opacity="0.3"/><circle cx="300" cy="378" r="414" fill="none" stroke="#ffe0a8" stroke-width="2.4" opacity="0.2"/><circle cx="300" cy="378" r="459" fill="none" stroke="#ffe0a8" stroke-width="2.4" opacity="0.1"/><circle cx="300" cy="378" r="504" fill="none" stroke="#ffe0a8" stroke-width="2.4" opacity="0.1"/><path d="M0 756L0 630L0 654L15 651.1L30 649.8L45 650.2L60 651.8L75 653.6L90 654.4L105 653L120 648.7L135 641.4L150 631.6L165 620.6L180 610L195 601.1L210 595.2L225 592.9L240 594L255 597.7L270 602.8L285 607.8L300 611.7L315 613.8L330 614.3L345 613.6L360 613.1L375 613.8L390 616.7L405 622.4L420 630.7L435 640.8L450 651.2L465 660.4L480 667.1L495 670.3L510 669.8L525 666L540 660L555 653.3L570 647.1L585 642.4L600 639.8L600 756Z" fill="#5a1405" opacity="0.9"/><path d="M0 792L0 684L0 711L15 716.1L30 719.1L45 719L60 715.7L75 709.6L90 701.9L105 694.2L120 687.7L135 683.5L150 681.7L165 681.9L180 682.8L195 683.2L210 681.8L225 678.1L240 672.2L255 664.9L270 657.5L285 651.6L300 648.3L315 648.3L330 651.5L345 656.9L360 663.1L375 668.8L390 672.7L405 674.4L420 674.2L435 672.9L450 672L465 672.6L480 675.7L495 681.5L510 689.3L525 698.1L540 706.2L555 712.3L570 715.4L585 715.3L600 712.7L600 792Z" fill="#2b0a05" opacity="1"/><g fill="#150502" transform="translate(168 684) scale(1.2857142857142858)"><path d="M-6 0C-4 -40 -10 -70 -26 -96L-18 -98C-6 -82 2 -70 4 -52C8 -72 18 -90 36 -102L42 -96C26 -82 12 -58 10 0Z"/><ellipse cx="-14" cy="-108" rx="62" ry="13"/><ellipse cx="34" cy="-112" rx="54" ry="11"/><ellipse cx="6" cy="-122" rx="40" ry="9"/></g><g fill="#150502" transform="translate(444 697.5) scale(1)"><path d="M-6 0C-4 -40 -10 -70 -26 -96L-18 -98C-6 -82 2 -70 4 -52C8 -72 18 -90 36 -102L42 -96C26 -82 12 -58 10 0Z"/><ellipse cx="-14" cy="-108" rx="62" ry="13"/><ellipse cx="34" cy="-112" rx="54" ry="11"/><ellipse cx="6" cy="-122" rx="40" ry="9"/></g><g fill="#0b0301" transform="translate(300 720) scale(1.125)"><circle cx="0" cy="-118" r="10"/><path d="M-30 -108L-22 -112L-10 -80Q0 -84 10 -80L22 -112L30 -108L16 -70L12 -30L10 0L-10 0L-12 -30L-16 -70Z"/></g><rect y="711" width="600" height="900" fill="#0b0301"/><defs><linearGradient id="fade" x1="0" y1="0" x2="0" y2="1"><stop offset="0" stop-color="#000" stop-opacity="0"/><stop offset="1" stop-color="#000" stop-opacity="0.55"/></linearGradient><radialGradient id="vig"><stop offset="0" stop-color="#000" stop-opacity="0"/><stop offset="1" stop-color="#000" stop-opacity="0.55"/></radialGradient><filter id="grain"><feTurbulence type="fractalNoise" baseFrequency=".9" numOctaves="2" stitchTiles="stitch"/><feColorMatrix values="0 0 0 0 1  0 0 0 0 1  0 0 0 0 1  0 0 0 .5 0"/></filter></defs><rect width="600" height="900" fill="url(#fade)"/><rect width="600" height="900" filter="url(#grain)" opacity=".07"/></svg>