<svg xmlns="http://www.w3.org/2000/svg" viewBox="0 0 600 900" preserveAspectRatio="xMidYMid slice"><defs><linearGradient id="sky" x1="0" y1="0" x2="0" y2="1"><stop offset="0" stop-color="#04121c" stop-opacity="1"/><stop offset="0.6" stop-color="#0a3550" stop-opacity="1"/><stop offset="1" stop-color="#e5007e" stop-opacity="1"/></linearGradient></defs><rect width="600" height="900" fill="url(#sky)"/><circle cx="142.8" cy="263.6" r="0.6" fill="#fff" opacity="0.7"/><circle cx="429.8" cy="129.7" r="1" fill="#fff" opacity="0.3"/><circle cx="30.8" cy="312.9" r="0.4" fill="#fff" opacity="0.3"/><circle cx="298.9" cy="231.9" r="0.5" fill="#fff" opacity="0.7"/><circle cx="284.1" cy="139.6" r="1.5" fill="#fff" opacity="0.2"/><circle cx="588.2" cy="128.1" r="1.4" fill="#fff" opacity="0.6"/><circle cx="359.6" cy="170.8" r="1.7" fill="#fff" opacity="0.5"/><circle cx="301.4" cy="79.3" r="0.7" fill="#fff" opacity="0.7"/><circle cx="112.4" cy="147.2" r="1.7" fill="#fff" opacity="0.3"/><circle cx="535.5" cy="101.6" r="1" fill="#fff" opacity="0.4"/><circle cx="532.6" cy="192.1" r="0.9" fill="#fff" opacity="0.6"/><circle cx="61.1" cy="57.6" r="0.4" fill="#fff" opacity="0.2"/><circle cx="470.1" cy="103.7" r="0.4" fill="#fff" opacity="0.5"/><circle cx="91.7" cy="128.7" r="0.3" fill="#fff" opacity="0.6"/><circle cx="146.7" cy="109.8" r="1.1" fill="#fff" opacity="0.6"/><circle cx="238.6" cy="231.4" r="0.5" fill="#fff" opacity="0.3"/><circle cx="55.6" cy="203.9" r="1.6" fill="#fff" opacity="0.8"/><circle cx="54.8" cy="175.3" r="0.5" fill="#fff" opacity="0.5"/><circle cx="48.6" cy="225.6" r="1.4" fill="#fff" opacity="0.7"/><circle cx="166" cy="204.1" r="1.6" fill="#fff" opacity="0.2"/><circle cx="410.8" cy="321.9" r="0.4" fill="#fff" opacity="0.5"/><circle cx="588.3" cy="118.2" r="1.7" fill="#fff" opacity="0.3"/><circle cx="122.4" cy="352.1" r="0.6" fill="#fff" opacity="0.2"/><circle cx="434.7" cy="220.9" r="1.1" fill="#fff" opacity="0.7"/><circle cx="108.6" cy="34.3" r="1.5" fill="#fff" opacity="0.4"/><circle cx="208.3" cy="126.5" r="1.2" fill="#fff" opacity="0.3"/><circle cx="76.8" cy="195.4" r="1.1" fill="#fff" opacity="0.3"/><circle cx="82.9" cy="111" r="1.2" fill="#fff" opacity="0.4"/><circle cx="340.7" cy="82.5" r="0.6" fill="#fff" opacity="0.3"/><circle cx="171.7" cy="325.1" r="0.5" fill="#fff" opacity="0.6"/><circle cx="233" cy="97.6" r="0.6" fill="#fff" opacity="0.8"/><circle cx="382.8" cy="30.3" r="0.5" fill="#fff" opacity="0.3"/><circle cx="304.7" cy="234.8" r="0.9" fill="#fff" opacity="0.4"/><circle cx="463" cy="96.6" r="0.6" fill="#fff" opacity="0.2"/><circle cx="512" cy="339.3" r="1.1" fill="#fff" opacity="0.4"/><circle cx="228.4" cy="123.7" r="1.6" fill="#fff" opacity="0.3"/><circle cx="391.6" cy="29.6" r="0.3" fill="#fff" opacity="0.7"/><circle cx="582.5" cy="263.8" r="0.5" fill="#fff" opacity="0.5"/><circle cx="22" cy="82" r="0.7" fill="#fff" opacity="0.4"/><circle cx="522.7" cy="187.7" r="0.3" fill="#fff" opacity="0.2"/><defs><radialGradient id="g"><stop offset="0" stop-color="#3de0ff" stop-opacity="0.4"/><stop offset="1" stop-color="#3de0ff" stop-opacity="0"/></radialGradient></defs><circle cx="520" cy="234" r="450" fill="url(#g)"/><rect x="-10" y="547.6" width="39" height="158.4" fill="#06202e"/><rect x="7" y="557.6" width="4" height="6" fill="#7ff0ff" opacity="0.6"/><rect x="-4" y="648.6" width="4" height="6" fill="#7ff0ff" opacity="0.8"/><rect x="18" y="661.6" width="4" height="6" fill="#7ff0ff" opacity="0.9"/><rect x="30.9" y="512.9" width="66.4" height="193.1" fill="#06202e"/><rect x="62.6" y="488.9" width="3" height="26" fill="#06202e"/><rect x="36.9" y="522.9" width="4" height="6" fill="#7ff0ff" opacity="0.9"/><rect x="69.9" y="522.9" width="4" height="6" fill="#7ff0ff" opacity="0.5"/><rect x="69.9" y="548.9" width="4" height="6" fill="#7ff0ff" opacity="0.9"/><rect x="47.9" y="613.9" width="4" height="6" fill="#7ff0ff" opacity="0.7"/><rect x="58.9" y="613.9" width="4" height="6" fill="#7ff0ff" opacity="0.9"/><rect x="69.9" y="613.9" width="4" height="6" fill="#7ff0ff" opacity="0.5"/><rect x="80.9" y="613.9" width="4" height="6" fill="#7ff0ff" opacity="0.6"/><rect x="80.9" y="626.9" width="4" height="6" fill="#7ff0ff" opacity="0.6"/><rect x="69.9" y="652.9" width="4" height="6" fill="#7ff0ff" opacity="0.7"/><rect x="80.9" y="665.9" width="4" height="6" fill="#7ff0ff" opacity="0.7"/><rect x="97.9" y="474.3" width="74.3" height="231.7" fill="#06202e"/><rect x="125.9" y="484.3" width="4" height="6" fill="#7ff0ff" opacity="0.6"/><rect x="136.9" y="523.3" width="4" height="6" fill="#7ff0ff" opacity="0.6"/><rect x="103.9" y="536.3" width="4" height="6" fill="#7ff0ff" opacity="0.6"/><rect x="114.9" y="536.3" width="4" height="6" fill="#7ff0ff" opacity="0.5"/><rect x="147.9" y="536.3" width="4" height="6" fill="#7ff0ff" opacity="0.7"/><rect x="136.9" y="562.3" width="4" height="6" fill="#7ff0ff" opacity="0.7"/><rect x="158.9" y="575.3" width="4" height="6" fill="#7ff0ff" opacity="0.9"/><rect x="147.9" y="601.3" width="4" height="6" fill="#7ff0ff" opacity="0.5"/><rect x="125.9" y="666.3" width="4" height="6" fill="#7ff0ff" opacity="0.6"/><rect x="158.9" y="666.3" width="4" height="6" fill="#7ff0ff" opacity="0.5"/><rect x="103.9" y="679.3" width="4" height="6" fill="#7ff0ff" opacity="0.7"/><rect x="136.9" y="692.3" width="4" height="6" fill="#7ff0ff" opacity="0.5"/><rect x="147.9" y="692.3" width="4" height="6" fill="#7ff0ff" opacity="0.8"/><rect x="173.6" y="509.4" width="69.3" height="196.6" fill="#06202e"/><rect x="212.6" y="545.4" width="4" height="6" fill="#7ff0ff" opacity="0.8"/><rect x="190.6" y="558.4" width="4" height="6" fill="#7ff0ff" opacity="0.7"/><rect x="190.6" y="571.4" width="4" height="6" fill="#7ff0ff" opacity="0.8"/><rect x="223.6" y="584.4" width="4" height="6" fill="#7ff0ff" opacity="0.8"/><rect x="179.6" y="623.4" width="4" height="6" fill="#7ff0ff" opacity="0.6"/><rect x="179.6" y="649.4" width="4" height="6" fill="#7ff0ff" opacity="0.5"/><rect x="201.6" y="649.4" width="4" height="6" fill="#7ff0ff" opacity="0.6"/><rect x="245.6" y="534.7" width="49.1" height="171.3" fill="#06202e"/><rect x="251.6" y="648.7" width="4" height="6" fill="#7ff0ff" opacity="0.5"/><rect x="262.6" y="674.7" width="4" height="6" fill="#7ff0ff" opacity="0.9"/><rect x="251.6" y="687.7" width="4" height="6" fill="#7ff0ff" opacity="0.9"/><rect x="262.6" y="687.7" width="4" height="6" fill="#7ff0ff" opacity="0.5"/><rect x="298.5" y="526.9" width="41.9" height="179.1" fill="#06202e"/><rect x="315.5" y="601.9" width="4" height="6" fill="#7ff0ff" opacity="0.8"/><rect x="326.5" y="640.9" width="4" height="6" fill="#7ff0ff" opacity="0.7"/><rect x="326.5" y="653.9" width="4" height="6" fill="#7ff0ff" opacity="0.6"/><rect x="340.7" y="460.4" width="60.8" height="245.6" fill="#06202e"/><rect x="346.7" y="470.4" width="4" height="6" fill="#7ff0ff" opacity="0.7"/><rect x="368.7" y="470.4" width="4" height="6" fill="#7ff0ff" opacity="0.6"/><rect x="357.7" y="509.4" width="4" height="6" fill="#7ff0ff" opacity="0.8"/><rect x="368.7" y="509.4" width="4" height="6" fill="#7ff0ff" opacity="0.8"/><rect x="368.7" y="535.4" width="4" height="6" fill="#7ff0ff" opacity="0.5"/><rect x="346.7" y="548.4" width="4" height="6" fill="#7ff0ff" opacity="0.6"/><rect x="368.7" y="548.4" width="4" height="6" fill="#7ff0ff" opacity="0.9"/><rect x="390.7" y="561.4" width="4" height="6" fill="#7ff0ff" opacity="0.6"/><rect x="346.7" y="587.4" width="4" height="6" fill="#7ff0ff" opacity="0.9"/><rect x="346.7" y="678.4" width="4" height="6" fill="#7ff0ff" opacity="0.5"/><rect x="357.7" y="678.4" width="4" height="6" fill="#7ff0ff" opacity="0.9"/><rect x="357.7" y="691.4" width="4" height="6" fill="#7ff0ff" opacity="0.8"/><rect x="402" y="458.1" width="44.7" height="247.9" fill="#06202e"/><rect x="430" y="481.1" width="4" height="6" fill="#7ff0ff" opacity="0.9"/><rect x="408" y="585.1" width="4" height="6" fill="#7ff0ff" opacity="0.6"/><rect x="408" y="598.1" width="4" height="6" fill="#7ff0ff" opacity="0.8"/><rect x="408" y="611.1" width="4" height="6" fill="#7ff0ff" opacity="0.5"/><rect x="408" y="624.1" width="4" height="6" fill="#7ff0ff" opacity="0.6"/><rect x="408" y="650.1" width="4" height="6" fill="#7ff0ff" opacity="0.8"/><rect x="430" y="650.1" width="4" height="6" fill="#7ff0ff" opacity="0.7"/><rect x="430" y="663.1" width="4" height="6" fill="#7ff0ff" opacity="0.7"/><rect x="430" y="676.1" width="4" height="6" fill="#7ff0ff" opacity="0.5"/><rect x="450.2" y="466.7" width="68.4" height="239.3" fill="#06202e"/><rect x="456.2" y="502.7" width="4" height="6" fill="#7ff0ff" opacity="0.6"/><rect x="467.2" y="528.7" width="4" height="6" fill="#7ff0ff" opacity="0.6"/><rect x="489.2" y="528.7" width="4" height="6" fill="#7ff0ff" opacity="0.7"/><rect x="456.2" y="541.7" width="4" height="6" fill="#7ff0ff" opacity="0.8"/><rect x="478.2" y="541.7" width="4" height="6" fill="#7ff0ff" opacity="0.8"/><rect x="489.2" y="541.7" width="4" height="6" fill="#7ff0ff" opacity="0.6"/><rect x="500.2" y="567.7" width="4" height="6" fill="#7ff0ff" opacity="0.7"/><rect x="489.2" y="580.7" width="4" height="6" fill="#7ff0ff" opacity="0.9"/><rect x="500.2" y="580.7" width="4" height="6" fill="#7ff0ff" opacity="0.5"/><rect x="478.2" y="593.7" width="4" height="6" fill="#7ff0ff" opacity="0.8"/><rect x="520.9" y="498.2" width="72.5" height="207.8" fill="#06202e"/><rect x="548.9" y="521.2" width="4" height="6" fill="#7ff0ff" opacity="0.8"/><rect x="581.9" y="586.2" width="4" height="6" fill="#7ff0ff" opacity="0.8"/><rect x="559.9" y="599.2" width="4" height="6" fill="#7ff0ff" opacity="0.9"/><rect x="548.9" y="612.2" width="4" height="6" fill="#7ff0ff" opacity="0.6"/><rect x="570.9" y="638.2" width="4" height="6" fill="#7ff0ff" opacity="0.6"/><rect x="559.9" y="664.2" width="4" height="6" fill="#7ff0ff" opacity="0.6"/><rect x="581.9" y="677.2" width="4" height="6" fill="#7ff0ff" opacity="0.8"/><rect x="526.9" y="690.2" width="4" height="6" fill="#7ff0ff" opacity="0.6"/><rect x="593.9" y="592.8" width="57.8" height="113.2" fill="#06202e"/><rect x="599.9" y="615.8" width="4" height="6" fill="#7ff0ff" opacity="0.9"/><rect x="621.9" y="615.8" width="4" height="6" fill="#7ff0ff" opacity="0.9"/><rect x="599.9" y="628.8" width="4" height="6" fill="#7ff0ff" opacity="0.5"/><rect x="610.9" y="680.8" width="4" height="6" fill="#7ff0ff" opacity="0.9"/><rect x="632.9" y="693.8" width="4" height="6" fill="#7ff0ff" opacity="0.5"/><rect x="-30" y="662" width="74" height="440" fill="#0a2b3b"/><rect x="-30" y="662" width="74" height="4" fill="#3de0ff" opacity=".8"/><rect x="48" y="603.5" width="74" height="498.5" fill="#0d3a4f"/><rect x="48" y="603.5" width="74" height="4" fill="#3de0ff" opacity=".8"/><rect x="126" y="545" width="74" height="557" fill="#0a2b3b"/><rect x="126" y="545" width="74" height="4" fill="#3de0ff" opacity=".8"/><rect x="204" y="486.5" width="74" height="615.5" fill="#0d3a4f"/><rect x="204" y="486.5" width="74" height="4" fill="#3de0ff" opacity=".8"/><rect x="282" y="428" width="74" height="674" fill="#0a2b3b"/><rect x="282" y="428" width="74" height="4" fill="#3de0ff" opacity=".8"/><rect x="360" y="369.5" width="74" height="732.5" fill="#0d3a4f"/><rect x="360" y="369.5" width="74" height="4" fill="#3de0ff" opacity=".8"/><rect x="438" y="311" width="74" height="791" fill="#0a2b3b"/><rect x="438" y="311" width="74" height="4" fill="#3de0ff" opacity=".8"/><g fill="#02090e" transform="translate(552 311) scale(1.0499999999999998)"><circle cx="0" cy="-86" r="10"/><path d="M-12 -74Q0 -80 12 -74L16 -30L10 -30L8 0L-8 0L-10 -30L-16 -30Z"/></g><path d="M0 632L560 201" stroke="#ff3fa8" stroke-width="3" stroke-dasharray="2 12" stroke-linecap="round" opacity=".8"/><rect y="710" width="600" height="900" fill="#02090e"/><defs><linearGradient id="fade" x1="0" y1="0" x2="0" y2="1"><stop offset="0" stop-color="#000" stop-opacity="0"/><stop offset="1" stop-color="#000" stop-opacity="0.55"/></linearGradient><radialGradient id="vig"><stop offset="0" stop-color="#000" stop-opacity="0"/><stop offset="1" stop-color="#000" stop-opacity="0.55"/></radialGradient><filter id="grain"><feTurbulence type="fractalNoise" baseFrequency=".9" numOctaves="2" stitchTiles="stitch"/><feColorMatrix values="0 0 0 0 1  0 0 0 0 1  0 0 0 0 1  0 0 0 .5 0"/></filter></defs><rect width="600" height="900" fill="url(#fade)"/><rect width="600" height="900" filter="url(#grain)" opacity=".07"/></svg>